<svg width="28" height="28" viewBox="0 0 28 28" fill="none" xmlns="http://www.w3.org/2000/svg">
<path fill-rule="evenodd" clip-rule="evenodd" d="M21.3816 21.401C26.089 16.6936 25.5246 8.71532 19.7013 4.79034C16.0713 2.34043 11.1715 2.41739 7.60563 4.94426C2.68016 8.43313 1.70533 14.8978 4.68114 19.5667L3.29585 23.0043C2.97518 23.7867 3.75761 24.5692 4.55287 24.2613L7.99044 22.876C12.1463 25.5312 17.7388 25.0438 21.3816 21.401ZM15.9239 11.7553C15.9239 11.3199 15.5709 10.9669 15.1355 10.9669H9.00431C8.56888 10.9669 8.2159 11.3199 8.2159 11.7553C8.2159 12.1907 8.56888 12.5437 9.00431 12.5437H15.1355C15.5709 12.5437 15.9239 12.1907 15.9239 11.7553ZM18.3545 15.1868C18.7899 15.1868 19.1429 15.5398 19.1429 15.9752C19.1429 16.4106 18.7899 16.7636 18.3545 16.7636H11.5691C11.1337 16.7636 10.7807 16.4106 10.7807 15.9752C10.7807 15.5398 11.1337 15.1868 11.5691 15.1868H18.3545Z" fill="white"/>
</svg>
