<svg width="28" height="28" viewBox="0 0 28 28" fill="none" xmlns="http://www.w3.org/2000/svg">
<g opacity="0.8">
<path d="M11.5159 3.71872L11.5165 3.71826C12.6798 2.784 14.5608 2.78799 15.7447 3.73094C15.7449 3.73109 15.7451 3.73125 15.7452 3.7314L23.1776 9.67732C23.5758 10.0028 23.93 10.5212 24.1605 11.1243C24.3907 11.7268 24.4729 12.3499 24.3958 12.8583L22.9669 21.4089C22.9668 21.4097 22.9667 21.4104 22.9665 21.4112C22.6978 22.9515 21.1899 24.2273 19.6414 24.2273H7.60682C6.03368 24.2273 4.56172 22.9837 4.29314 21.4233C4.29305 21.4228 4.29297 21.4223 4.29288 21.4218L2.86291 12.8646L2.86262 12.8629C2.77586 12.351 2.85273 11.7271 3.08223 11.1253C3.3117 10.5235 3.67013 10.0059 4.07821 9.68027L4.07952 9.67922L11.5159 3.71872ZM13.6241 22.0375C14.5038 22.0375 15.2256 21.3157 15.2256 20.436V17.03C15.2256 16.1503 14.5038 15.4285 13.6241 15.4285C12.7444 15.4285 12.0226 16.1503 12.0226 17.03V20.436C12.0226 21.3157 12.7444 22.0375 13.6241 22.0375Z" stroke="white" stroke-width="1.5"/>
</g>
</svg>
