<svg width="28" height="28" viewBox="0 0 28 28" fill="none" xmlns="http://www.w3.org/2000/svg">
<path d="M23.6491 9.094L16.2127 3.14486C14.7594 1.98682 12.4888 1.97546 11.0469 3.1335L3.61045 9.094C2.54324 9.9455 1.8961 11.6485 2.12316 12.9882L3.55368 21.5486C3.88293 23.4673 5.6654 24.9773 7.60682 24.9773H19.6414C21.5601 24.9773 23.3766 23.4333 23.7059 21.5373L25.1364 12.9768C25.3407 11.6485 24.6936 9.9455 23.6491 9.094ZM14.4756 20.436C14.4756 20.9015 14.0896 21.2875 13.6241 21.2875C13.1586 21.2875 12.7726 20.9015 12.7726 20.436V17.03C12.7726 16.5645 13.1586 16.1785 13.6241 16.1785C14.0896 16.1785 14.4756 16.5645 14.4756 17.03V20.436Z" fill="white"/>
</svg>
