<svg width="28" height="28" viewBox="0 0 28 28" fill="none" xmlns="http://www.w3.org/2000/svg">
<path d="M13.8055 12.341C13.692 12.3297 13.5558 12.3297 13.4309 12.341C10.7288 12.2502 8.58301 10.0363 8.58301 7.31151C8.58301 4.52994 10.831 2.27063 13.6239 2.27063C16.4055 2.27063 18.6648 4.52994 18.6648 7.31151C18.6534 10.0363 16.5076 12.2502 13.8055 12.341Z" fill="white"/>
<path d="M8.12899 16.5305C5.38148 18.3698 5.38148 21.3671 8.12899 23.1949C11.2512 25.284 16.3715 25.284 19.4937 23.1949C22.2412 21.3557 22.2412 18.3584 19.4937 16.5305C16.3829 14.4529 11.2625 14.4529 8.12899 16.5305Z" fill="white"/>
</svg>
