<svg width="28" height="28" viewBox="0 0 28 28" fill="none" xmlns="http://www.w3.org/2000/svg">
<g opacity="0.8">
<path d="M13.8055 12.3411C13.692 12.3297 13.5558 12.3297 13.4309 12.3411C10.7288 12.2503 8.58301 10.0364 8.58301 7.31157C8.58301 4.53 10.831 2.27069 13.6239 2.27069C16.4055 2.27069 18.6648 4.53 18.6648 7.31157C18.6534 10.0364 16.5076 12.2503 13.8055 12.3411Z" stroke="white" stroke-width="1.572" stroke-linecap="round" stroke-linejoin="round"/>
<path d="M8.12899 16.5304C5.38148 18.3697 5.38148 21.3669 8.12899 23.1948C11.2512 25.2838 16.3715 25.2838 19.4937 23.1948C22.2412 21.3556 22.2412 18.3583 19.4937 16.5304C16.3829 14.4528 11.2625 14.4528 8.12899 16.5304Z" stroke="white" stroke-width="1.572" stroke-linecap="round" stroke-linejoin="round"/>
</g>
</svg>
